<svg xmlns="http://www.w3.org/2000/svg" viewBox="0 0 512 512" width="100%" height="100%">
  <defs>
    <linearGradient id="bg-grad" x1="0%" y1="0%" x2="100%" y2="100%">
      <stop offset="0%" stop-color="#0F141C" />
      <stop offset="100%" stop-color="#1A202C" />
    </linearGradient>
    
    <linearGradient id="magic-grad" x1="0%" y1="0%" x2="100%" y2="100%">
      <stop offset="0%" stop-color="#FF7B72" />
      <stop offset="50%" stop-color="#A572FF" />
      <stop offset="100%" stop-color="#58A6FF" />
    </linearGradient>

    <linearGradient id="sheet-grad" x1="0%" y1="0%" x2="0%" y2="100%">
      <stop offset="0%" stop-color="#21262D" />
      <stop offset="100%" stop-color="#161B22" />
    </linearGradient>
  </defs>

  <rect x="6" y="6" width="500" height="500" rx="122" fill="url(#bg-grad)" stroke="#30363D" stroke-width="10"/>

  <g transform="translate(38, 38) scale(0.85)">
    <circle cx="256" cy="256" r="220" fill="none" stroke="#58A6FF" stroke-width="4" stroke-dasharray="14 14" opacity="0.15"/>

    <rect x="90" y="55" width="340" height="425" rx="26" fill="" stroke="#A572FF" stroke-width="4" transform="rotate(6, 256, 256)" opacity="0.4" />

    <g transform="rotate(-3, 256, 256)">
      <rect x="75" y="45" width="362" height="422" rx="28" fill="#161B22" stroke="#484F58" stroke-width="7" />
      
      <rect x="110" y="95" width="22" height="22" rx="5" fill="#FF7B72" opacity="0.7" />
      <rect x="145" y="98" width="150" height="16" rx="8" fill="#58A6FF" opacity="0.9"/>
      
      <rect x="110" y="135" width="290" height="10" rx="5" fill="#30363D" />
      <rect x="110" y="160" width="220" height="10" rx="5" fill="#30363D" />
          
      <text x="110" y="205" fill="#58A6FF" font-family="-apple-system, BlinkMacSystemFont, 'Segoe UI', Helvetica, Arial, sans-serif" font-size="26px" font-weight="bold" letter-spacing="0.5px">README.md</text>
      
      <rect x="110" y="222" width="292" height="85" rx="14" fill="#0D1117" stroke="#30363D" stroke-width="4" />
      
      <circle cx="140" cy="265" r="14" fill="#7EE787" opacity="0.75"/>
      <rect x="165" y="255" width="165" height="8" rx="4" fill="#A572FF" />
      <rect x="165" y="270" width="205" height="8" rx="4" fill="#8B949E" />
      
      <rect x="110" y="330" width="270" height="10" rx="5" fill="#30363D" />
      
      <rect x="110" y="358" width="6" height="38" rx="3" fill="#D29922" opacity="0.8" />
      <rect x="130" y="360" width="250" height="10" rx="5" fill="#30363D" />
      <rect x="130" y="380" width="170" height="10" rx="5" fill="#30363D" />

      <rect x="110" y="420" width="210" height="10" rx="5" fill="#FF7B72" opacity="0.4" />
    </g>

    <g transform="translate(385, 125) scale(1.25) rotate(-38)">
      <path d="M -14,-90 L 14,-90 L 14,80 L 0,110 L -14,80 Z" fill="#000" opacity="0.3" transform="translate(5, 5)"/>
      <path d="M -14,-90 L 14,-90 L 14,60 L 0,95 L -14,60 Z" fill="url(#magic-grad)" stroke="#0D1117" stroke-width="6" stroke-linejoin="round"/>
      <path d="M -14,60 L 0,95 L 14,60" fill="none" stroke="#0D1117" stroke-width="6" stroke-linejoin="round"/>
      <circle cx="0" cy="115" r="7" fill="#FFF" />
      <circle cx="0" cy="115" r="16" fill="none" stroke="#FF7B72" stroke-width="3" opacity="0.5"/>
    </g>
  </g>
</svg>
